<?xml version="1.0" standalone="no"?>
<!DOCTYPE svg PUBLIC "-//W3C//DTD SVG 20010904//EN"
 "http://www.w3.org/TR/2001/REC-SVG-20010904/DTD/svg10.dtd">
<svg version="1.0" xmlns="http://www.w3.org/2000/svg"
 width="1280.000000pt" height="1280.000000pt" viewBox="0 0 1280.000000 1280.000000"
 preserveAspectRatio="xMidYMid meet">
<g transform="translate(0.000000,1280.000000) scale(0.100000,-0.100000)"
fill="#000000" stroke="none">
<path d="M6030 12379 c-833 -60 -1598 -273 -2375 -661 -590 -295 -1061 -632
-1505 -1077 -333 -334 -595 -670 -842 -1081 -1073 -1786 -1189 -3857 -322
-5714 663 -1419 1705 -2402 3184 -3003 308 -125 743 -254 1085 -322 574 -113
1222 -140 1805 -76 1411 158 2819 856 3730 1850 562 613 993 1345 1273 2160
566 1651 395 3401 -486 4965 -579 1029 -1384 1786 -2462 2315 -722 355 -1406
554 -2165 630 -185 19 -741 27 -920 14z m765 -1300 c1138 -96 2339 -677 3060
-1479 437 -486 771 -1059 988 -1697 364 -1066 336 -2175 -80 -3233 -430 -1094
-1170 -1913 -2198 -2435 -1054 -535 -2182 -669 -3295 -390 -597 150 -1230 451
-1725 821 -882 659 -1510 1668 -1749 2809 -109 521 -120 1144 -30 1674 137
812 492 1601 1009 2246 421 524 966 943 1621 1244 793 365 1583 510 2399 440z"/>
<path d="M6075 10075 c-568 -57 -1109 -261 -1585 -599 -337 -239 -671 -585
-905 -936 -817 -1230 -868 -2853 -129 -4136 298 -517 745 -979 1239 -1279 421
-256 895 -415 1385 -465 156 -16 497 -13 657 5 261 30 539 96 773 183 722 270
1358 802 1771 1483 149 247 335 650 347 754 6 55 -25 124 -69 157 -34 25
-1046 384 -1114 395 -43 7 -99 -12 -140 -48 -24 -21 -45 -59 -75 -137 -383
-966 -1299 -1514 -2208 -1322 -686 145 -1269 700 -1512 1438 -131 399 -163
821 -94 1227 173 1020 944 1787 1854 1844 696 43 1327 -295 1746 -936 41 -61
85 -120 100 -132 39 -31 100 -45 145 -33 32 8 934 520 1012 574 39 27 67 88
67 144 0 54 -31 116 -135 274 -711 1077 -1906 1667 -3130 1545z"/>
</g>
</svg>
